<?xml version="1.0" standalone="no"?>
<!DOCTYPE svg PUBLIC "-//W3C//DTD SVG 20010904//EN"
 "http://www.w3.org/TR/2001/REC-SVG-20010904/DTD/svg10.dtd">
<svg version="1.0" xmlns="http://www.w3.org/2000/svg"
 width="832.000000pt" height="832.000000pt" viewBox="0 0 832.000000 832.000000"
 preserveAspectRatio="xMidYMid meet">
<metadata>
Created by potrace 1.11, written by Peter Selinger 2001-2013
</metadata>
<g transform="translate(0.000000,832.000000) scale(0.100000,-0.100000)"
fill="#000000" stroke="none">
<path d="M3915 8309 c-803 -50 -1576 -333 -2220 -811 -329 -244 -618 -533
-863 -863 -960 -1292 -1085 -3022 -321 -4445 130 -242 324 -527 494 -725 190
-222 451 -466 690 -643 1292 -960 3022 -1085 4445 -321 367 197 696 445 996
751 164 167 240 256 372 433 375 505 634 1097 746 1708 56 304 61 356 61 767
0 411 -5 463 -61 767 -153 831 -563 1598 -1176 2199 -167 164 -256 240 -433
372 -784 582 -1758 872 -2730 811z m2795 -1393 c592 -90 1030 -596 1030 -1192
0 -463 -246 -866 -659 -1083 l-97 -50 23 -113 c78 -388 69 -821 -26 -1203
-247 -994 -1030 -1761 -2017 -1975 -221 -48 -292 -54 -659 -55 -192 -1 -469
-7 -615 -15 -496 -24 -857 9 -1250 116 -334 91 -664 260 -950 488 -110 88
-323 306 -417 427 -371 477 -569 1066 -562 1673 3 316 44 562 142 851 179 535
519 995 990 1343 248 183 616 360 902 435 247 65 573 95 1440 132 154 7 685
-10 835 -26 206 -22 490 -92 697 -170 l62 -24 90 91 c182 184 412 305 651 344
41 6 82 13 90 15 44 8 217 3 300 -9z"/>
<path d="M3730 6436 c-134 -42 -209 -72 -343 -135 -120 -56 -320 -174 -388
-229 l-44 -35 40 7 c58 9 252 24 385 30 63 3 228 13 365 22 271 18 797 13 906
-7 97 -19 101 -9 19 43 -117 72 -294 162 -420 211 -117 47 -373 127 -400 127
-8 -1 -62 -16 -120 -34z"/>
<path d="M5279 6130 c84 -62 91 -66 91 -51 0 9 -150 111 -164 111 -4 0 29 -27
73 -60z"/>
<path d="M2639 6143 c-13 -16 -12 -17 4 -4 9 7 17 15 17 17 0 8 -8 3 -21 -13z"/>
<path d="M2784 6085 c-101 -73 -167 -129 -143 -122 9 3 65 44 125 92 129 104
119 95 112 95 -3 0 -45 -29 -94 -65z"/>
<path d="M1743 6097 c-471 -319 -845 -816 -1023 -1357 -223 -675 -173 -1387
139 -2010 215 -428 539 -788 931 -1031 162 -101 166 -102 40 -4 -105 82 -328
276 -370 322 -171 186 -239 273 -347 441 -185 290 -319 637 -378 976 -100 586
-20 1151 240 1681 169 343 370 606 658 862 207 182 216 192 110 120z"/>
<path d="M5050 6138 c3 -3 40 -33 83 -67 42 -34 102 -84 132 -111 54 -49 75
-60 75 -40 0 15 -48 57 -150 129 -81 58 -157 106 -140 89z"/>
<path d="M2530 6069 c-122 -88 -263 -213 -350 -309 l-75 -84 60 44 c33 24 116
99 185 165 69 66 158 147 198 179 63 51 79 67 70 66 -2 0 -41 -28 -88 -61z"/>
<path d="M4860 6117 c0 -9 125 -104 159 -122 53 -27 47 -10 -11 33 -57 43
-148 97 -148 89z"/>
<path d="M2280 6042 c-167 -129 -352 -307 -473 -457 -479 -591 -678 -1362
-547 -2116 111 -639 466 -1219 985 -1609 84 -63 275 -187 211 -138 -258 202
-356 292 -490 452 -341 406 -536 838 -621 1373 -22 137 -31 471 -16 629 65
707 388 1349 921 1827 78 70 89 85 30 39z"/>
<path d="M1740 5928 c-433 -364 -735 -856 -869 -1413 -35 -144 -46 -212 -62
-370 -15 -148 -6 -481 16 -620 105 -664 437 -1241 945 -1646 95 -76 220 -164
220 -155 0 2 -49 45 -110 95 -525 435 -857 1022 -961 1702 -30 193 -33 572 -6
754 50 331 132 595 275 882 134 268 281 470 516 711 71 72 128 132 125 132 -2
0 -42 -32 -89 -72z"/>
<path d="M1928 5918 c-408 -347 -708 -832 -842 -1363 -60 -234 -70 -328 -71
-635 0 -290 5 -347 50 -559 135 -639 532 -1226 1076 -1592 49 -33 89 -58 89
-55 0 2 -51 44 -112 92 -475 372 -823 931 -957 1539 -53 243 -75 582 -52 820
64 664 338 1251 803 1718 53 53 95 97 93 97 -3 0 -37 -28 -77 -62z"/>
<path d="M3739 5826 c-228 -92 -496 -323 -653 -560 -72 -110 -175 -320 -163
-332 2 -2 45 5 95 16 187 41 438 45 622 10 412 -78 766 -302 1022 -646 l72
-99 9 45 c12 62 1 286 -18 395 -83 468 -366 873 -775 1111 -148 86 -148 86
-211 60z"/>
<path d="M4766 5762 c5 -5 44 -37 86 -71 273 -219 498 -593 572 -951 108 -517
-32 -1040 -383 -1437 -45 -50 -81 -95 -81 -98 0 -17 161 130 224 203 277 326
409 736 367 1145 -49 477 -297 891 -693 1158 -76 51 -122 77 -92 51z"/>
<path d="M3277 5697 c-226 -163 -391 -354 -510 -592 -41 -81 -112 -264 -105
-270 2 -2 26 8 54 20 51 23 52 24 75 96 33 107 148 329 225 436 68 95 221 259
309 331 28 23 48 41 45 41 -3 1 -44 -28 -93 -62z"/>
<path d="M4090 5756 c0 -2 24 -22 53 -43 324 -237 552 -589 643 -998 31 -134
43 -402 25 -534 -11 -81 -10 -85 18 -154 15 -40 32 -71 37 -69 28 7 64 251 64
426 0 418 -159 804 -455 1101 -117 118 -198 182 -299 236 -71 38 -86 44 -86
35z"/>
<path d="M4605 5709 c94 -75 282 -278 348 -376 318 -474 381 -1057 170 -1571
-34 -83 -91 -194 -124 -243 -27 -39 -37 -72 -29 -93 5 -16 15 -8 61 55 111
151 167 257 223 417 163 468 85 995 -207 1409 -82 116 -250 284 -366 366 -96
68 -148 93 -76 36z"/>
<path d="M3017 5670 c-129 -96 -283 -256 -375 -391 -51 -75 -138 -248 -170
-339 -32 -89 -76 -250 -69 -256 2 -2 26 12 55 31 42 29 53 43 62 78 84 330
237 597 479 835 51 50 92 92 90 92 -2 0 -34 -23 -72 -50z"/>
<path d="M5157 5632 c50 -50 115 -120 144 -157 28 -36 53 -64 55 -63 2 2 -2
23 -8 46 -8 32 -27 57 -82 109 -39 38 -101 88 -136 112 l-65 44 92 -91z"/>
<path d="M4440 5663 c280 -247 456 -528 546 -872 30 -115 54 -295 54 -402 0
-171 -37 -392 -91 -545 -26 -75 -28 -87 -18 -133 6 -28 13 -51 15 -51 10 0 75
152 109 252 47 141 66 257 72 428 13 354 -91 688 -304 979 -98 134 -347 363
-420 387 -10 3 7 -16 37 -43z"/>
<path d="M2096 5627 c-133 -111 -249 -270 -366 -500 -140 -278 -214 -522 -270
-897 -29 -191 -22 -496 16 -720 69 -409 246 -820 492 -1144 147 -195 394 -430
584 -556 74 -50 65 -40 -57 62 -420 352 -730 851 -870 1398 -34 133 -54 252
-70 420 -32 321 -7 611 80 945 87 335 189 555 401 872 57 84 102 153 101 153
-1 0 -19 -15 -41 -33z"/>
<path d="M2692 5570 c-297 -262 -489 -640 -527 -1035 l-7 -70 49 48 49 48 22
126 c50 286 184 580 361 790 27 32 73 84 103 116 29 31 51 57 47 57 -4 0 -47
-36 -97 -80z"/>
<path d="M2493 5571 c-114 -97 -226 -261 -344 -506 -92 -191 -148 -351 -184
-518 -22 -100 -19 -338 4 -337 3 0 20 24 37 53 30 50 32 58 37 192 13 314 112
621 283 875 49 73 133 181 168 215 33 32 79 85 75 85 -3 0 -37 -27 -76 -59z"/>
<path d="M2217 5503 c-173 -170 -335 -471 -434 -805 -36 -121 -36 -126 -37
-308 -1 -102 3 -203 8 -225 8 -36 11 -27 28 100 10 77 39 232 64 345 88 394
155 545 376 848 50 68 88 125 86 127 -2 2 -43 -34 -91 -82z"/>
<path d="M5600 4937 c0 -3 11 -47 25 -99 13 -51 30 -118 35 -148 15 -75 38
-374 30 -380 -4 -3 -10 -34 -14 -70 -43 -381 -206 -720 -480 -995 -71 -71
-116 -121 -100 -111 146 95 330 276 423 415 116 176 200 375 202 482 1 39 3
47 8 29 6 -20 11 -7 25 60 27 125 33 369 12 501 -23 149 -38 184 -106 258 -33
35 -60 61 -60 58z m107 -699 c-3 -8 -6 -5 -6 6 -1 11 2 17 5 13 3 -3 4 -12 1
-19z m10 -90 c-3 -7 -5 -2 -5 12 0 14 2 19 5 13 2 -7 2 -19 0 -25z"/>
<path d="M5885 4678 c3 -7 11 -58 19 -113 8 -55 24 -154 36 -220 11 -66 20
-136 20 -155 0 -19 4 -41 9 -49 15 -23 26 87 26 249 0 204 -6 234 -57 270 -44
32 -60 37 -53 18z"/>
<path d="M6125 4512 c4 -37 11 -85 16 -108 42 -197 54 -585 25 -815 -54 -431
-191 -807 -423 -1164 -96 -147 -183 -255 -318 -394 -136 -141 -127 -147 19
-11 442 410 707 912 805 1520 45 279 31 666 -34 944 -16 67 -18 69 -63 84
l-34 11 7 -67z"/>
<path d="M6804 4539 l-32 -9 14 -66 c54 -259 65 -650 25 -911 -74 -485 -269
-940 -559 -1303 -106 -133 -279 -308 -397 -402 -118 -95 -120 -97 -77 -72 142
81 435 344 576 518 229 282 413 647 502 998 87 345 103 727 43 1068 -35 205
-32 198 -95 179z"/>
<path d="M6333 4499 c42 -167 60 -389 54 -652 -7 -283 -30 -445 -102 -691 -93
-319 -282 -682 -487 -936 -34 -41 -118 -133 -187 -204 -133 -136 -126 -137 27
-3 260 227 500 563 645 903 193 453 252 975 166 1472 -11 64 -22 118 -24 120
-2 3 -25 7 -51 10 -45 5 -47 4 -41 -19z"/>
<path d="M6558 4505 c-2 -3 3 -49 13 -102 31 -174 42 -356 36 -563 -9 -287
-48 -505 -138 -773 -164 -490 -453 -907 -859 -1241 -59 -48 13 -2 100 65 548
419 904 1051 985 1748 26 222 18 519 -20 746 -22 130 -20 125 -69 125 -23 0
-45 -2 -48 -5z"/>
<path d="M1674 3875 c4 -175 36 -460 56 -495 6 -10 9 17 10 77 0 50 7 125 16
165 18 85 14 120 -26 243 -16 50 -36 113 -44 140 -15 48 -15 42 -12 -130z"/>
<path d="M5857 3990 c-25 -88 -61 -189 -102 -285 -30 -69 -64 -220 -45 -198
33 39 85 123 121 193 42 81 44 90 47 185 2 55 2 116 0 135 -3 33 -4 31 -21
-30z"/>
<path d="M6046 3885 c-10 -33 -31 -91 -48 -130 -20 -49 -33 -105 -44 -188 -61
-493 -273 -991 -584 -1372 -73 -89 -236 -257 -320 -329 l-55 -48 50 31 c81 48
202 157 340 302 258 272 459 621 575 998 69 224 115 529 108 711 l-3 85 -19
-60z"/>
<path d="M5644 3508 c-79 -116 -166 -219 -260 -308 -89 -83 -79 -85 26 -5 164
126 264 243 280 325 6 29 9 55 7 57 -2 1 -26 -30 -53 -69z"/>
<path d="M5784 3388 c-27 -35 -70 -87 -96 -116 -27 -29 -48 -58 -48 -66 0 -22
-55 -195 -95 -296 -67 -170 -234 -479 -305 -563 -6 -6 -32 -41 -59 -77 -177
-238 -456 -488 -717 -642 -57 -33 -104 -62 -104 -64 0 -16 292 132 395 202
183 122 404 324 545 498 206 254 376 578 474 907 29 96 69 270 63 275 -2 3
-26 -24 -53 -58z"/>
<path d="M5550 3144 c-173 -145 -408 -268 -609 -320 l-71 -19 -69 -140 c-136
-277 -318 -483 -574 -650 -185 -120 -419 -208 -638 -241 -88 -13 -154 -15
-294 -11 -99 3 -198 10 -220 16 -22 5 -41 8 -43 6 -7 -7 175 -110 310 -175
154 -73 342 -141 476 -170 l83 -18 82 28 c667 226 1235 758 1522 1427 40 92
118 314 112 319 -1 1 -31 -22 -67 -52z"/>
<path d="M2640 1916 c0 -2 14 -14 30 -26 17 -12 30 -19 30 -16 0 2 -13 14 -30
26 -16 12 -30 19 -30 16z"/>
</g>
</svg>
